<svg width="18" height="20" viewBox="0 0 18 20" fill="none" xmlns="http://www.w3.org/2000/svg">
  <path fill-rule="evenodd" clip-rule="evenodd" d="M12.3082 3.3079C12.2828 3.24923 12.2449 3.19427 12.1945 3.14664L9.01462 0.143915C8.81141 -0.0479716 8.48195 -0.0479716 8.27874 0.143915C8.07554 0.335801 8.07554 0.64691 8.27874 0.838797L10.5703 3.00273H9C4.02938 3.00273 0 6.80764 0 11.5014C0 16.1951 4.02938 20 9 20C13.9706 20 18 16.1951 18 11.5014V8.83227C18 8.5609 17.767 8.34092 17.4797 8.34092C17.1923 8.34092 16.9593 8.5609 16.9593 8.83227V11.5014C16.9593 15.6523 13.3959 19.0173 9 19.0173C4.60413 19.0173 1.04069 15.6523 1.04069 11.5014C1.04069 7.35038 4.60413 3.98544 9 3.98544H10.5703L8.27874 6.14937C8.07554 6.34126 8.07554 6.65237 8.27874 6.84426C8.48195 7.03614 8.81141 7.03614 9.01462 6.84426L12.1945 3.84153C12.2449 3.79396 12.2827 3.73908 12.3081 3.6805C12.332 3.62565 12.3456 3.56584 12.3468 3.50315M12.3082 3.3079C12.3308 3.36004 12.3435 3.41509 12.3463 3.47051C12.3467 3.47837 12.3469 3.48623 12.3469 3.49409M7.34911 13.1027C7.34911 12.4897 6.82258 11.9926 6.17352 11.9926C5.47973 11.9926 5.47973 11.0099 6.17352 11.0099C6.82258 11.0099 7.34911 10.5128 7.34911 9.8998C7.34911 9.28683 6.82258 8.7897 6.17352 8.7897C5.52404 8.7897 4.99793 9.28657 4.99793 9.8998C4.99793 10.1712 4.76497 10.3912 4.47759 10.3912C4.19021 10.3912 3.95725 10.1712 3.95725 9.8998C3.95725 8.74387 4.94925 7.80699 6.17352 7.80699C7.3973 7.80699 8.3898 8.74406 8.3898 9.8998C8.3898 10.5424 8.083 11.1173 7.60024 11.5013C8.083 11.8852 8.3898 12.4601 8.3898 13.1027C8.3898 14.2585 7.3973 15.1955 6.17352 15.1955C4.94925 15.1955 3.95725 14.2587 3.95725 13.1027C3.95725 12.8313 4.19021 12.6114 4.47759 12.6114C4.76497 12.6114 4.99793 12.8313 4.99793 13.1027C4.99793 13.7159 5.52404 14.2128 6.17352 14.2128C6.82258 14.2128 7.34911 13.7157 7.34911 13.1027ZM14.0428 13.1027C14.0428 14.2586 13.0505 15.1956 11.8265 15.1956C10.6025 15.1956 9.61021 14.2586 9.61021 13.1027V9.89983C9.61021 8.74399 10.6025 7.80702 11.8265 7.80702C13.0505 7.80702 14.0428 8.74399 14.0428 9.89983V13.1027ZM13.0021 13.1027V9.89983C13.0021 9.28673 12.4758 8.78973 11.8265 8.78973C11.1772 8.78973 10.6509 9.28673 10.6509 9.89983V13.1027C10.6509 13.7158 11.1772 14.2128 11.8265 14.2128C12.4758 14.2128 13.0021 13.7158 13.0021 13.1027Z" fill="currentColor"/>
</svg>
