<svg xmlns="http://www.w3.org/2000/svg" xmlns:xlink="http://www.w3.org/1999/xlink" width="500" zoomAndPan="magnify" viewBox="0 0 375 219.75" height="293" preserveAspectRatio="xMidYMid meet" version="1.0">
  <defs>
    <clipPath id="ebfdab34d2">
      <path d="M 80.96875 0 L 186 0 L 186 219.285156 L 80.96875 219.285156 Z M 80.96875 0 " clip-rule="nonzero"/>
    </clipPath>
    <clipPath id="b55b32106d">
      <path d="M 189.617188 0.03125 L 294 0.03125 L 294 219.285156 L 189.617188 219.285156 Z M 189.617188 0.03125 " clip-rule="nonzero"/>
    </clipPath>
    <clipPath id="8e85e0fbac">
      <path d="M 0.214844 109 L 169.214844 109 L 169.214844 207.722656 L 0.214844 207.722656 Z M 0.214844 109 " clip-rule="nonzero"/>
    </clipPath>
    <clipPath id="813ce03d3c">
      <path d="M 205.679688 109 L 374.679688 109 L 374.679688 207.722656 L 205.679688 207.722656 Z M 205.679688 109 " clip-rule="nonzero"/>
    </clipPath>
  </defs>
  <g clip-path="url(#ebfdab34d2)">
    <path fill="currentColor" d="M 80.96875 108.867188 L 80.96875 110.53125 L 81.09375 110.65625 L 185.28125 219.203125 L 185.28125 108.785156 L 80.96875 0.113281 Z M 80.96875 108.867188 " fill-opacity="1" fill-rule="nonzero"/>
  </g>
  <g clip-path="url(#b55b32106d)">
    <path fill="currentColor" d="M 189.617188 110.445312 L 189.617188 108.785156 L 189.742188 108.660156 L 293.929688 0.113281 L 293.929688 110.53125 L 189.617188 219.203125 Z M 189.617188 110.445312 " fill-opacity="1" fill-rule="nonzero"/>
  </g>
  <g clip-path="url(#8e85e0fbac)">
    <path fill="currentColor" d="M 169.148438 109.679688 L 0.28125 207.722656 L 44.828125 109.679688 Z M 169.148438 109.679688 " fill-opacity="1" fill-rule="nonzero"/>
  </g>
  <g clip-path="url(#813ce03d3c)">
    <path fill="currentColor" d="M 205.746094 109.679688 L 374.613281 207.722656 L 330.066406 109.679688 Z M 205.746094 109.679688 " fill-opacity="1" fill-rule="nonzero"/>
  </g>
</svg>